<?xml version="1.0" encoding="UTF-8"?>
<svg id="Calque_1" xmlns="http://www.w3.org/2000/svg" version="1.1" viewBox="0 0 317 648.59">
  <!-- Generator: Adobe Illustrator 29.4.0, SVG Export Plug-In . SVG Version: 2.1.0 Build 152)  -->
  <defs>
    <style>
      .st0 {
        fill: #7790ED;
        fill-rule: evenodd;
      }
    </style>
  </defs>
  <path class="st0" d="M266.47,1.5H50.53C24.85,1.5,4.03,22.32,4.03,48v552.59c0,25.68,20.82,46.5,46.5,46.5h215.94c25.68,0,46.5-20.82,46.5-46.5V48c0-25.68-20.82-46.5-46.5-46.5ZM182.63,38.84h-48.26c-5.85,0-10.59-4.74-10.59-10.59s4.74-10.59,10.59-10.59h48.26c5.86,0,10.6,4.74,10.6,10.59s-4.75,10.59-10.6,10.59Z"/>
  <path class="st0" d="M191.73,28.25c0,5.02-4.08,9.09-9.1,9.09h-48.26c-5.02,0-9.09-4.07-9.09-9.09s4.07-9.09,9.09-9.09h48.26c5.03,0,9.1,4.07,9.1,9.09Z"/>
</svg>
